<svg version="1.1" baseProfile="full"
 xmlns="http://www.w3.org/2000/svg"
  height="51px" 
  width="50px" 
>
<path fill="rgb( 243, 12, 22 )"
 d="M25,0.99900000000002 C11.192,0.99900000000002 0,12.1900000000001 0,26 C0,39.809 11.192,51 25,51 C38.808,51 50,39.809 50,26 C50,12.1900000000001 38.808,0.99900000000002 25,0.99900000000002 ZM23.245,10.732 C23.245,10.732 26.756,10.732 26.756,10.732 C26.756,10.732 26.756,28.146 26.756,28.146 C26.756,28.146 23.245,28.146 23.245,28.146 C23.245,28.146 23.245,10.732 23.245,10.732 ZM25,38.8209999999999 C18.255,38.8209999999999 12.782,33.348 12.782,26.6020000000001 C12.782,20.971 16.591,16.2339999999999 21.773,14.8140000000001 C21.773,14.8140000000001 21.773,18.365 21.773,18.365 C18.482,19.6559999999999 16.154,22.856 16.154,26.6020000000001 C16.154,31.4870000000001 20.115,35.45 25,35.45 C29.885,35.45 33.848,31.4870000000001 33.848,26.6020000000001 C33.848,22.856 31.518,19.6559999999999 28.231,18.365 C28.231,18.365 28.231,14.8140000000001 28.231,14.8140000000001 C33.409,16.2339999999999 37.218,20.971 37.218,26.6020000000001 C37.218,33.348 31.748,38.8209999999999 25,38.8209999999999 Z "/>
</svg>

